<svg width="22" height="16" viewBox="0 0 22 16" fill="none" xmlns="http://www.w3.org/2000/svg">
<path d="M8.1858 14.6087C8.1858 13.8403 8.81145 13.2174 9.58322 13.2174C10.355 13.2174 10.9806 13.8403 10.9806 14.6087C10.9806 15.3771 10.355 16 9.58322 16C8.81145 16 8.1858 15.3771 8.1858 14.6087Z" fill="#F9F9FF"/>
<path d="M15.8716 14.6087C15.8716 13.8403 16.4973 13.2174 17.269 13.2174C18.0408 13.2174 18.6664 13.8403 18.6664 14.6087C18.6664 15.3771 18.0408 16 17.269 16C16.4973 16 15.8716 15.3771 15.8716 14.6087Z" fill="#F9F9FF"/>
<path d="M0.5 0.869565C0.5 0.389309 0.89102 0 1.37339 0H3.80343C4.34578 0 4.83915 0.312415 5.06905 0.801461L6.56701 3.9876C6.57752 3.98633 6.58808 3.98518 6.59867 3.98412L19.962 2.65362C20.9829 2.55197 21.7621 3.5439 21.417 4.50599L18.9977 11.2506C18.799 11.8043 18.2722 12.1739 17.6817 12.1739H9.10201C8.54567 12.1739 8.04232 11.8453 7.82048 11.3373L6.23437 7.70525C6.21795 7.67701 6.2029 7.64776 6.18934 7.61753L3.55129 1.73913H1.37339C0.89102 1.73913 0.5 1.34982 0.5 0.869565Z" fill="#F9F9FF"/>
</svg>
