<svg width="12" height="13" viewBox="0 0 12 13" fill="none" xmlns="http://www.w3.org/2000/svg">
<path d="M11.9457 1.80338C11.9457 1.20609 11.457 0.717407 10.8597 0.717407H6.89593C6.62443 0.717407 6.35294 0.826005 6.13575 1.0432L0.325792 6.85315C-0.108597 7.28754 -0.108597 7.99342 0.325792 8.42781L4.28959 12.3916C4.72398 12.826 5.42986 12.826 5.86425 12.3916L11.6742 6.58166C11.8914 6.36447 12 6.09297 12 5.82148L11.9457 1.80338ZM8.68778 5.1156C8.0905 5.1156 7.60181 4.62691 7.60181 4.02962C7.60181 3.43234 8.0905 2.94365 8.68778 2.94365C9.28507 2.94365 9.77376 3.43234 9.77376 4.02962C9.77376 4.62691 9.28507 5.1156 8.68778 5.1156Z" fill="#F9F9FF"/>
</svg>
