<svg width="18" height="18" viewBox="0 0 18 18" fill="none" xmlns="http://www.w3.org/2000/svg">
<path fill-rule="evenodd" clip-rule="evenodd" d="M4.04243 1.08409C7.90815 -1.14778 12.8512 0.176712 15.0831 4.04243C16.7769 6.97616 16.4224 10.5304 14.4634 13.0492L17.7072 16.293C18.0977 16.6835 18.0977 17.3167 17.7072 17.7072C17.3167 18.0977 16.6835 18.0977 16.293 17.7072L13.0483 14.4626C12.759 14.6872 12.4509 14.8948 12.1248 15.0831C8.25904 17.315 3.31596 15.9905 1.08409 12.1248C-1.14779 8.25905 0.176704 3.31597 4.04243 1.08409ZM13.3511 5.04243C11.6715 2.1333 7.95156 1.13655 5.04243 2.81614C2.13329 4.49574 1.13655 8.21563 2.81614 11.1248C4.49573 14.0339 8.21563 15.0306 11.1248 13.3511C14.0339 11.6715 15.0306 7.95157 13.3511 5.04243Z" fill="#F9F9FF"/>
</svg>
