<svg width="12" height="13" viewBox="0 0 12 13" fill="none" xmlns="http://www.w3.org/2000/svg">
<path d="M5.83988 0.642237C5.8624 0.452588 6.1376 0.452588 6.16012 0.642237L6.3489 2.23322C6.59266 4.28761 8.21239 5.90734 10.2668 6.1511L11.8577 6.33988C12.0474 6.3624 12.0474 6.6376 11.8577 6.66012L10.2668 6.8489C8.21239 7.09266 6.59266 8.71239 6.3489 10.7668L6.16012 12.3577C6.1376 12.5474 5.8624 12.5474 5.83988 12.3577L5.6511 10.7668C5.40734 8.71239 3.78761 7.09266 1.73322 6.8489L0.142237 6.66012C-0.0474123 6.6376 -0.0474123 6.3624 0.142237 6.33988L1.73322 6.1511C3.78761 5.90734 5.40734 4.28761 5.6511 2.23322L5.83988 0.642237Z" fill="#F9F9FF"/>
</svg>
