<svg width="160" height="40" viewBox="0 0 160 40" fill="none" xmlns="http://www.w3.org/2000/svg">
<g filter="url(#filter0_i_473_1020)">
<path d="M20.7445 16H27.6088C28.1611 16 28.6088 16.4477 28.6088 17V31.8487C28.6088 31.949 28.5937 32.0487 28.5641 32.1445L26.3499 39.2958C26.2202 39.7145 25.833 40 25.3946 40H11.135C10.6992 40 10.3137 39.7178 10.1818 39.3025L8.27768 33.3025C8.07305 32.6577 8.55434 32 9.23083 32H19.7445C20.2968 32 20.7445 31.5523 20.7445 31V16ZM17.5303 8C17.9687 8 18.3559 8.28549 18.4856 8.70423L20.7445 16H8.86432C8.31204 16 7.86432 16.4477 7.86432 17V39C7.86432 39.5523 7.41661 40 6.86432 40H1C0.447716 40 0 39.5523 0 39V0.999999C0 0.447714 0.447715 0 1 0H6.86432C7.41661 0 7.86432 0.447715 7.86432 1V7C7.86432 7.55228 8.31204 8 8.86432 8H17.5303Z" fill="#FF6F00"/>
<path d="M39.4842 8V30.937C39.4842 31.4893 39.9319 31.937 40.4842 31.937H55.2128V38.937C55.2128 39.4893 54.7651 39.937 54.2128 39.937H34.8905C34.4548 39.937 34.0692 39.6548 33.9374 39.2395L31.6667 32.0846C31.6356 31.9868 31.6198 31.8848 31.6198 31.7821V9C31.6198 8.44771 32.0676 8 32.6198 8H39.4842ZM59.8065 0C60.2422 0 60.6278 0.282169 60.7596 0.697508L63.0303 7.85238C63.0613 7.95021 63.0771 8.05223 63.0771 8.15487V30.937C63.0771 31.4893 62.6294 31.937 62.0771 31.937H55.2128V9C55.2128 8.44771 54.7651 8 54.2128 8H39.4842L41.8017 0.697507C41.9335 0.282168 42.3191 0 42.7548 0H59.8065Z" fill="#FF6F00"/>
<path d="M86.6595 16H93.5238C94.0761 16 94.5238 16.4477 94.5238 17V31.8487C94.5238 31.949 94.5087 32.0487 94.4791 32.1445L92.2649 39.2958C92.1352 39.7145 91.748 40 91.3096 40H77.05C76.6142 40 76.2287 39.7178 76.0968 39.3025L74.1927 33.3025C73.988 32.6577 74.4693 32 75.1458 32H85.6595C86.2118 32 86.6595 31.5523 86.6595 31V16ZM83.4453 8C83.8837 8 84.2709 8.28549 84.4006 8.70423L86.6595 16H74.7793C74.227 16 73.7793 16.4477 73.7793 17V39C73.7793 39.5523 73.3316 40 72.7793 40H66.915C66.3627 40 65.915 39.5523 65.915 39V0.999999C65.915 0.447714 66.3627 0 66.915 0H72.7793C73.3316 0 73.7793 0.447715 73.7793 1V7C73.7793 7.55228 74.227 8 74.7793 8H83.4453Z" fill="#FF6F00"/>
<path d="M118.287 16H125.151C125.703 16 126.151 16.4477 126.151 17V31.8487C126.151 31.949 126.136 32.0487 126.106 32.1445L123.892 39.2958C123.762 39.7145 123.375 40 122.937 40H108.677C108.241 40 107.856 39.7178 107.724 39.3025L105.82 33.3025C105.615 32.6577 106.096 32 106.773 32H117.287C117.839 32 118.287 31.5523 118.287 31V16ZM115.072 8C115.511 8 115.898 8.28549 116.028 8.70423L118.287 16H106.406C105.854 16 105.406 16.4477 105.406 17V39C105.406 39.5523 104.959 40 104.406 40H98.5421C97.9898 40 97.5421 39.5523 97.5421 39V0.999999C97.5421 0.447714 97.9898 0 98.5421 0H104.406C104.959 0 105.406 0.447715 105.406 1V7C105.406 7.55228 105.854 8 106.406 8H115.072Z" fill="#FF6F00"/>
<path d="M139.565 8L142.042 16L144.581 24H137.448C137.013 24 136.627 23.7178 136.495 23.3025L134.178 16L131.701 8L129.575 1.30249C129.371 0.657692 129.852 0 130.528 0H136.294C136.73 0 137.116 0.28217 137.248 0.697509L139.565 8ZM151.914 0.697507C152.046 0.282168 152.432 0 152.867 0H158.633C159.31 0 159.791 0.657692 159.587 1.30249L157.461 8L154.984 16L152.492 23.8524C152.461 23.9502 152.445 24.0522 152.445 24.1549V38.937C152.445 39.4893 151.998 39.937 151.445 39.937H145.581C145.029 39.937 144.581 39.4893 144.581 38.937V24L147.12 16L149.597 8L151.914 0.697507Z" fill="#FF6F00"/>
</g>
<defs>
<filter id="filter0_i_473_1020" x="0" y="0" width="159.634" height="44" filterUnits="userSpaceOnUse" color-interpolation-filters="sRGB">
<feFlood flood-opacity="0" result="BackgroundImageFix"/>
<feBlend mode="normal" in="SourceGraphic" in2="BackgroundImageFix" result="shape"/>
<feColorMatrix in="SourceAlpha" type="matrix" values="0 0 0 0 0 0 0 0 0 0 0 0 0 0 0 0 0 0 127 0" result="hardAlpha"/>
<feOffset dy="4"/>
<feGaussianBlur stdDeviation="4"/>
<feComposite in2="hardAlpha" operator="arithmetic" k2="-1" k3="1"/>
<feColorMatrix type="matrix" values="0 0 0 0 0.976471 0 0 0 0 0.976471 0 0 0 0 1 0 0 0 0.2 0"/>
<feBlend mode="normal" in2="shape" result="effect1_innerShadow_473_1020"/>
</filter>
</defs>
</svg>
