<svg width="14" height="13" viewBox="0 0 14 13" fill="none" xmlns="http://www.w3.org/2000/svg">
<path d="M7.62996 11.7182L9.8582 12.8491C10.0824 12.9625 10.3349 13.013 10.5872 12.995C10.8395 12.977 11.0816 12.8911 11.2861 12.7471C11.4906 12.6031 11.6493 12.4067 11.7444 12.1801C11.8395 11.9535 11.8671 11.7057 11.8242 11.4647L11.3995 9.06923C11.3621 8.85961 11.3782 8.64435 11.4461 8.44205C11.5141 8.23975 11.6321 8.05649 11.7898 7.90812L13.5902 6.21168C13.7715 6.0409 13.8998 5.82449 13.9604 5.58694C14.0211 5.34938 14.0118 5.10016 13.9336 4.86744C13.8554 4.63473 13.7113 4.42781 13.5178 4.27009C13.3242 4.11238 13.0889 4.01015 12.8383 3.97498L10.3497 3.62548C10.1325 3.59437 9.92644 3.51284 9.74904 3.38789C9.57163 3.26293 9.42821 3.09827 9.33106 2.90801L8.21503 0.731005C8.103 0.511582 7.92969 0.326831 7.71468 0.197647C7.49968 0.0684632 7.25157 0 6.99841 0C6.74525 0 6.49713 0.0684632 6.28213 0.197647C6.06713 0.326831 5.89381 0.511582 5.78179 0.731005L4.66893 2.91171C4.57179 3.10196 4.42837 3.26662 4.25096 3.39158C4.07356 3.51654 3.86745 3.59806 3.65031 3.62917L1.16167 3.97867C0.911136 4.01384 0.675779 4.11607 0.482219 4.27379C0.288659 4.4315 0.14462 4.63842 0.0663923 4.87113C-0.0118357 5.10385 -0.0211316 5.35308 0.0395559 5.59063C0.100243 5.82819 0.228493 6.04459 0.4098 6.21537L2.21022 7.91181C2.36792 8.06018 2.48586 8.24344 2.55385 8.44574C2.62185 8.64804 2.63785 8.8633 2.60049 9.07292L2.17266 11.4647C2.12936 11.706 2.15685 11.9542 2.25202 12.1812C2.34719 12.4082 2.50623 12.6049 2.71113 12.749C2.91603 12.8931 3.15859 12.9789 3.41134 12.9966C3.66408 13.0143 3.9169 12.9632 4.14116 12.8491L6.36941 11.7182C6.5639 11.6198 6.78016 11.5684 6.99968 11.5684C7.2192 11.5684 7.43546 11.6198 7.62996 11.7182Z" fill="url(#paint0_linear_550_64)"/>
<defs>
<linearGradient id="paint0_linear_550_64" x1="6.99841" y1="-0.0695284" x2="6.99841" y2="13.0497" gradientUnits="userSpaceOnUse">
<stop stop-color="#FFF650"/>
<stop offset="1" stop-color="#FFAB17"/>
</linearGradient>
</defs>
</svg>
