<svg width="16" height="18" viewBox="0 0 16 18" fill="none" xmlns="http://www.w3.org/2000/svg">
<g id="Vector">
<path d="M15.4326 3.33054C14.1126 3.19665 12.7927 3.09623 11.4645 3.02092V3.01255L11.2841 1.92469C11.1612 1.15481 10.9808 0 9.06233 0H6.91431C5.00405 0 4.82368 1.1046 4.6925 1.91632L4.52033 2.98745C3.75787 3.03766 2.9954 3.08787 2.23294 3.16318L0.560433 3.33054C0.216094 3.36402 -0.0298628 3.67364 0.00293141 4.01674C0.0357256 4.35983 0.330873 4.61088 0.675213 4.57741L2.34772 4.41004C6.64376 3.9749 10.9726 4.14226 15.3178 4.58577C15.3424 4.58577 15.3588 4.58577 15.3834 4.58577C15.695 4.58577 15.9655 4.3431 15.9983 4.01674C16.0229 3.67364 15.7769 3.36402 15.4326 3.33054Z" fill="#F9F9FF"/>
<path d="M13.9241 5.76569C13.7274 5.55649 13.4568 5.43933 13.1781 5.43933H2.8151C2.53635 5.43933 2.2576 5.55649 2.06903 5.76569C1.88047 5.9749 1.77388 6.25941 1.79028 6.5523L2.29859 15.1381C2.38878 16.41 2.50356 18 5.36485 18H10.6283C13.4896 18 13.6044 16.4184 13.6946 15.1381L14.2029 6.56067C14.2193 6.25941 14.1127 5.9749 13.9241 5.76569ZM9.35754 13.8075H6.62743C6.29129 13.8075 6.01254 13.523 6.01254 13.1799C6.01254 12.8368 6.29129 12.5523 6.62743 12.5523H9.35754C9.69368 12.5523 9.97243 12.8368 9.97243 13.1799C9.97243 13.523 9.69368 13.8075 9.35754 13.8075ZM10.0462 10.4603H5.94695C5.61081 10.4603 5.33206 10.1757 5.33206 9.83264C5.33206 9.48954 5.61081 9.20502 5.94695 9.20502H10.0462C10.3824 9.20502 10.6611 9.48954 10.6611 9.83264C10.6611 10.1757 10.3824 10.4603 10.0462 10.4603Z" fill="#F9F9FF"/>
</g>
</svg>
